<?xml version="1.0" encoding="utf-8"?>
<!-- Generator: Adobe Illustrator 23.0.1, SVG Export Plug-In . SVG Version: 6.00 Build 0)  -->
<svg version="1.1" id="Warstwa_1" xmlns="http://www.w3.org/2000/svg" xmlns:xlink="http://www.w3.org/1999/xlink" x="0px" y="0px"
	 viewBox="0 0 252.53 79.97" style="enable-background:new 0 0 252.53 79.97;" xml:space="preserve">
<style type="text/css">
	.st0{fill:#EDF0F6;}
	.st1{fill:url(#SVGID_1_);}
	.st2{fill:url(#SVGID_2_);}
</style>
<g>
	<g>
		<path class="st0" d="M95.49,17.02c0-2.6-0.08-4.71-0.17-6.64h3.32l0.17,3.49h0.08c1.51-2.48,3.91-3.95,7.23-3.95
			c4.92,0,8.61,4.16,8.61,10.33c0,7.31-4.45,10.92-9.24,10.92c-2.69,0-5.04-1.18-6.26-3.19h-0.08v11.05h-3.65V17.02z M99.15,22.44
			c0,0.55,0.08,1.05,0.17,1.51c0.67,2.56,2.9,4.33,5.54,4.33c3.91,0,6.18-3.19,6.18-7.86c0-4.07-2.14-7.56-6.05-7.56
			c-2.52,0-4.87,1.81-5.59,4.58c-0.13,0.46-0.25,1.01-0.25,1.51V22.44z"/>
		<path class="st0" d="M137.79,20.38c0,7.52-5.21,10.8-10.12,10.8c-5.5,0-9.75-4.03-9.75-10.46c0-6.81,4.45-10.8,10.08-10.8
			C133.84,9.92,137.79,14.17,137.79,20.38z M121.66,20.59c0,4.45,2.56,7.81,6.18,7.81c3.53,0,6.17-3.32,6.17-7.9
			c0-3.44-1.72-7.81-6.09-7.81C123.55,12.7,121.66,16.73,121.66,20.59z"/>
		<path class="st0" d="M139.84,28.57l9.2-11.97c0.88-1.09,1.72-2.06,2.65-3.15v-0.08h-11.01v-2.98h15.5l-0.04,2.31l-9.07,11.8
			c-0.84,1.13-1.68,2.14-2.6,3.19v0.08h11.89v2.94h-16.51V28.57z"/>
		<path class="st0" d="M162.44,10.39l4.45,12.01c0.46,1.34,0.97,2.94,1.3,4.16h0.08c0.38-1.22,0.8-2.77,1.3-4.24l4.03-11.93h3.91
			l-5.54,14.49c-2.65,6.97-4.45,10.54-6.97,12.73c-1.81,1.6-3.61,2.23-4.54,2.39l-0.92-3.11c0.92-0.29,2.14-0.88,3.24-1.81
			c1.01-0.8,2.27-2.23,3.11-4.12c0.17-0.38,0.29-0.67,0.29-0.88s-0.08-0.5-0.25-0.97l-7.52-18.74H162.44z"/>
		<path class="st0" d="M180.16,26.94c1.09,0.71,3.02,1.47,4.87,1.47c2.69,0,3.95-1.34,3.95-3.02c0-1.76-1.05-2.73-3.78-3.74
			c-3.65-1.3-5.38-3.32-5.38-5.75c0-3.28,2.65-5.96,7.02-5.96c2.06,0,3.86,0.59,5,1.26l-0.92,2.69c-0.8-0.5-2.27-1.18-4.16-1.18
			c-2.18,0-3.4,1.26-3.4,2.77c0,1.68,1.22,2.44,3.87,3.44c3.53,1.34,5.33,3.11,5.33,6.13c0,3.57-2.77,6.09-7.6,6.09
			c-2.23,0-4.29-0.55-5.71-1.39L180.16,26.94z"/>
		<path class="st0" d="M200.96,19.71h0.08c0.5-0.71,1.22-1.6,1.81-2.31l5.97-7.01h4.45l-7.86,8.36l8.95,11.97h-4.5l-7.02-9.75
			l-1.89,2.1v7.65h-3.66V0.89h3.66V19.71z"/>
		<path class="st0" d="M228.97,30.72l-0.29-2.56h-0.13c-1.13,1.6-3.32,3.02-6.22,3.02c-4.12,0-6.22-2.9-6.22-5.84
			c0-4.92,4.37-7.6,12.22-7.56v-0.42c0-1.68-0.46-4.7-4.62-4.7c-1.89,0-3.86,0.59-5.29,1.51l-0.84-2.44
			c1.68-1.09,4.12-1.81,6.68-1.81c6.22,0,7.73,4.24,7.73,8.32v7.6c0,1.76,0.08,3.49,0.34,4.87H228.97z M228.42,20.34
			c-4.03-0.08-8.61,0.63-8.61,4.58c0,2.39,1.6,3.53,3.49,3.53c2.65,0,4.33-1.68,4.92-3.4c0.13-0.38,0.21-0.8,0.21-1.18V20.34z"/>
		<path class="st0" d="M252.45,29.96c-0.97,0.5-3.11,1.18-5.84,1.18c-6.13,0-10.12-4.16-10.12-10.38c0-6.26,4.28-10.8,10.92-10.8
			c2.18,0,4.12,0.55,5.12,1.05l-0.84,2.86c-0.88-0.5-2.27-0.97-4.28-0.97c-4.66,0-7.18,3.44-7.18,7.69c0,4.71,3.02,7.6,7.06,7.6
			c2.1,0,3.49-0.55,4.54-1.01L252.45,29.96z M251.65,1.61l-5.12,6.01h-2.65l3.7-6.01H251.65z"/>
	</g>
	<g>
		<linearGradient id="SVGID_1_" gradientUnits="userSpaceOnUse" x1="53.1193" y1="39.6482" x2="27.1105" y2="39.6482">
			<stop  offset="0" style="stop-color:#FF4918"/>
			<stop  offset="1" style="stop-color:#E91A80"/>
		</linearGradient>
		<path class="st1" d="M30.92,30.45c-5.08,5.08-5.08,13.31,0,18.39c5.08,5.08,13.31,5.08,18.39,0c5.08-5.08,5.08-13.31,0-18.39
			C44.23,25.37,36,25.37,30.92,30.45z"/>
		<linearGradient id="SVGID_2_" gradientUnits="userSpaceOnUse" x1="79" y1="39.5" x2="0" y2="39.5">
			<stop  offset="0" style="stop-color:#FF4918"/>
			<stop  offset="1" style="stop-color:#E91A80"/>
		</linearGradient>
		<path class="st2" d="M69.13,65.62C75.27,58.66,79,49.52,79,39.5C79,17.68,61.32,0,39.5,0S0,17.68,0,39.5C0,61.32,17.68,79,39.5,79
			c10.25,0,19.59-3.91,26.61-10.31L50.87,53.45c-6.87,5.37-16.81,4.9-23.13-1.42c-6.83-6.83-6.83-17.91,0-24.75
			c6.83-6.83,17.91-6.83,24.75,0c6.32,6.32,6.79,16.26,1.42,23.13L69.13,65.62z"/>
	</g>
	<g>
		<path class="st0" d="M99.14,60.65h0.08c0.5-0.71,1.22-1.6,1.81-2.31l5.97-7.02h4.45l-7.86,8.36l8.95,11.97h-4.49l-7.02-9.75
			l-1.89,2.1v7.65h-3.65V41.83h3.65V60.65z"/>
		<path class="st0" d="M115.48,41.83h3.7v29.83h-3.7V41.83z"/>
		<path class="st0" d="M129.8,45.61c0.04,1.26-0.88,2.27-2.35,2.27c-1.3,0-2.23-1.01-2.23-2.27c0-1.3,0.97-2.31,2.31-2.31
			C128.92,43.3,129.8,44.31,129.8,45.61z M125.69,71.65V51.32h3.7v20.33H125.69z"/>
		<path class="st0" d="M137.87,62.16c0.08,5,3.28,7.06,6.97,7.06c2.65,0,4.24-0.46,5.63-1.05l0.63,2.65
			c-1.3,0.59-3.53,1.26-6.76,1.26c-6.26,0-10-4.12-10-10.25s3.61-10.96,9.54-10.96c6.64,0,8.4,5.84,8.4,9.58
			c0,0.76-0.08,1.34-0.13,1.72H137.87z M148.7,59.51c0.04-2.35-0.97-6.01-5.12-6.01c-3.74,0-5.38,3.44-5.67,6.01H148.7z"/>
		<path class="st0" d="M157.14,56.83c0-2.1-0.04-3.82-0.17-5.5h3.28l0.21,3.36h0.08c1.01-1.93,3.36-3.82,6.72-3.82
			c2.81,0,7.18,1.68,7.18,8.65v12.14h-3.7V59.93c0-3.28-1.22-6.01-4.71-6.01c-2.44,0-4.33,1.72-4.96,3.78
			c-0.17,0.46-0.25,1.09-0.25,1.72v12.22h-3.7V56.83z"/>
		<path class="st0" d="M185.2,45.48v5.84h5.29v2.81h-5.29V65.1c0,2.52,0.71,3.95,2.77,3.95c0.97,0,1.68-0.13,2.14-0.25l0.17,2.77
			c-0.71,0.29-1.85,0.5-3.28,0.5c-1.72,0-3.11-0.55-3.99-1.55c-1.05-1.09-1.43-2.9-1.43-5.29V54.14h-3.15v-2.81h3.15v-4.87
			L185.2,45.48z"/>
		<path class="st0" d="M206.2,71.65l-0.29-2.56h-0.13c-1.13,1.6-3.32,3.02-6.22,3.02c-4.12,0-6.22-2.9-6.22-5.84
			c0-4.92,4.37-7.6,12.22-7.56V58.3c0-1.68-0.46-4.71-4.62-4.71c-1.89,0-3.87,0.59-5.29,1.51l-0.84-2.44
			c1.68-1.09,4.12-1.81,6.68-1.81c6.22,0,7.73,4.24,7.73,8.32v7.6c0,1.76,0.08,3.49,0.34,4.87H206.2z M205.66,61.28
			c-4.03-0.08-8.61,0.63-8.61,4.58c0,2.39,1.6,3.53,3.49,3.53c2.65,0,4.33-1.68,4.92-3.4c0.13-0.38,0.21-0.8,0.21-1.18V61.28z"/>
		<path class="st0" d="M214.6,69.47c0-1.55,1.05-2.65,2.52-2.65c1.47,0,2.48,1.09,2.48,2.65c0,1.51-0.97,2.65-2.52,2.65
			C215.61,72.12,214.6,70.98,214.6,69.47z"/>
		<path class="st0" d="M224.47,57.96c0-2.6-0.08-4.71-0.17-6.64h3.32l0.17,3.49h0.08c1.51-2.48,3.91-3.95,7.23-3.95
			c4.92,0,8.61,4.16,8.61,10.33c0,7.31-4.45,10.92-9.24,10.92c-2.69,0-5.04-1.18-6.26-3.19h-0.08v11.05h-3.66V57.96z M228.12,63.38
			c0,0.55,0.08,1.05,0.17,1.51c0.67,2.56,2.9,4.33,5.54,4.33c3.91,0,6.17-3.19,6.17-7.86c0-4.08-2.14-7.56-6.05-7.56
			c-2.52,0-4.87,1.81-5.59,4.58c-0.13,0.46-0.25,1.01-0.25,1.51V63.38z"/>
		<path class="st0" d="M248.66,41.83h3.7v29.83h-3.7V41.83z"/>
	</g>
</g>
</svg>
